# xmcd
#
# Track frame offsets: 
#        150
#        22675
#        39038
#        58365
#        76655
#        94301
#        113571
#        132852
#        150617
#        167790
#        188622
#        207855
#        229736
#        252169
#        273519
#        290018
#
# Disc length: 4120 seconds
#
# Revision: 15
# Processed by: cddbd v1.5.2PL0 Copyright (c) Steve Scherf et al.
# Submitted via: ExactAudioCopyFreeDBPlugin 1.0
#
DISCID=cc101610
DTITLE=Tim McGraw - Reflected: Greatest Hits Vol. 2
DYEAR=2006
DGENRE=Country
TTITLE0=Live Like You Were Dying
TTITLE1=My Old Friend
TTITLE2=Like We Never Loved At All (feat. Faith Hill)
TTITLE3=The Cowboy In Me
TTITLE4=When The Stars Go Blue
TTITLE5=Real Good Man
TTITLE6=She's My Kind Of Rain
TTITLE7=Grown Men Don't Cry
TTITLE8=Not A Moment Too Soon
TTITLE9=Watch The Wind Blow By
TTITLE10=Over And Over (feat. Nelly)
TTITLE11=Everywhere
TTITLE12=Beautiful People
TTITLE13=Red Ragtop
TTITLE14=My Little Girl (from the motion picture 'Flicka')
TTITLE15=I've Got Friends That Do
EXTD=Tim McGraw
EXTT0=
EXTT1=
EXTT2=
EXTT3=
EXTT4=
EXTT5=
EXTT6=
EXTT7=
EXTT8=
EXTT9=
EXTT10=
EXTT11=
EXTT12=
EXTT13=
EXTT14=
EXTT15=
PLAYORDER=
